<svg width="120" height="120" viewBox="0 0 52 51" fill="none" xmlns="http://www.w3.org/2000/svg">
<path fill-rule="evenodd" clip-rule="evenodd" d="M25.2029 0.442699C25.1883 0.383006 25.1721 0.323314 25.1559 0.263621C25.0052 0.189409 24.8561 0.0538909 24.7054 0.0506643C23.759 0.0313046 22.8045 -0.120347 21.8759 0.229742C20.9312 0.58467 19.9718 0.896039 19.027 1.25097C16.5768 2.1754 14.2157 3.27729 12.0766 4.80187C10.7251 5.7634 9.36063 6.7088 8.05935 7.73648C7.04328 8.5383 6.04666 9.38851 5.16834 10.3339C3.89623 11.702 2.97253 13.3363 2.2125 15.027C0.144717 19.6201 -0.479184 24.4391 0.366729 29.392C1.83006 37.9619 6.51175 44.2602 14.2303 48.2806C18.2006 50.3489 22.4626 51.2507 26.9514 50.941C29.0629 50.7941 31.1145 50.3844 33.0835 49.5503C35.2987 48.6113 37.3973 47.4675 39.3873 46.1349C41.3627 44.8136 43.3041 43.4374 45.2163 42.029C46.3669 41.182 47.0945 39.9963 47.5758 38.6249C47.1301 38.5685 46.7866 38.7153 46.5289 39.0025C46.1757 39.3977 45.8775 39.843 45.5275 40.2447C45.1239 40.7061 44.7431 41.2111 44.2634 41.5789C41.3011 43.8537 38.0487 45.6574 34.6829 47.2578C32.9392 48.0854 31.1259 48.7678 29.3952 49.618C28.4779 50.0682 27.564 50.3811 26.5544 50.407C25.6858 50.4279 24.7831 50.6441 23.9842 50.1036C23.793 49.9746 23.5046 49.7616 23.5191 49.6116C23.5386 49.4115 23.7768 49.1808 23.9794 49.0582C24.7524 48.5936 25.6161 48.5436 26.4928 48.6065C27.0292 48.6452 27.5413 48.6129 28.0615 48.4145C34.529 45.9639 40.3677 42.4453 45.764 38.1668C46.4074 37.657 47.007 37.0794 47.7022 36.6551C48.2175 36.3421 48.6696 36.0081 48.9127 35.4774C49.2158 34.8159 49.4637 34.1254 49.6938 33.4349C49.7765 33.1865 49.7975 32.8848 49.7408 32.6331C49.6873 32.3976 49.4848 32.012 49.3568 32.0168C49.1039 32.0233 48.7701 32.1943 48.6275 32.404C48.2483 32.9606 47.968 33.5817 47.6212 34.1609C47.4624 34.4255 47.2695 34.6917 47.0345 34.8869C46.0946 35.6726 45.1239 36.4212 44.1808 37.2036C41.6901 39.2687 39.0032 41.0594 36.2953 42.8244C35.9032 43.0793 35.511 43.3874 35.2323 43.7553C34.2259 45.083 32.902 45.6751 31.2539 45.6073C30.3026 45.5686 29.6204 45.1169 29.3271 44.328C29.0435 43.5617 29.272 42.8228 29.9947 42.1678C31.0043 41.253 32.1857 40.8029 33.555 40.8771C34.0606 40.9045 34.5111 40.79 34.9584 40.5383C37.9548 38.8556 40.8685 37.0487 43.5634 34.9079C43.6363 34.8498 43.7238 34.8078 43.8162 34.7498C44.0269 35.1466 44.2213 35.5129 44.4466 35.9388C45.1256 34.3464 45.7705 32.8364 46.4333 31.286C44.9424 31.0988 43.5196 30.9198 42.0206 30.731C42.2427 31.2569 42.4306 31.7006 42.6202 32.1475C42.5295 32.212 42.4728 32.2556 42.4128 32.2943C37.6209 35.437 32.6524 38.2652 27.4084 40.5964C25.9078 41.2627 24.3845 41.8806 22.9001 42.5808C22.4804 42.7792 22.1158 43.1487 21.8046 43.5068C21.4189 43.9505 21.0365 44.357 20.4499 44.528C18.805 45.0088 16.6692 44.1312 15.8524 42.6292C15.1961 41.4224 15.6547 40.2528 16.9479 39.793C17.7452 39.5106 18.5312 39.6042 19.3349 39.7639C19.6574 39.8285 20.0464 39.8511 20.3364 39.7284C21.5178 39.2332 22.6943 38.7153 23.8351 38.1313C29.5361 35.2144 35.135 32.1168 40.5379 28.6773C43.5682 26.7477 46.6083 24.8344 49.2158 22.3337C49.2514 22.2998 49.3049 22.2837 49.36 22.2531C49.6079 22.6048 49.8413 22.9355 50.1103 23.3178C50.731 21.711 51.3257 20.1735 51.9447 18.5731C50.227 18.4473 48.5562 18.3246 46.8077 18.1972C47.1609 18.7667 47.4624 19.2523 47.7719 19.7508C47.2533 20.0735 46.7461 20.3752 46.2518 20.6946C41.7776 23.5953 37.4119 26.6687 32.7269 29.2403C32.2829 29.4839 32.0123 29.8001 31.847 30.289C31.2247 32.1378 29.0694 33.2817 27.2253 32.7799C25.2563 32.2427 24.0069 30.1583 24.5206 28.2562C25.2239 25.6571 27.6515 25.0344 29.3222 25.4684C29.8019 25.5926 30.2184 25.5749 30.6511 25.3345C31.4824 24.8715 32.3267 24.4326 33.1612 23.9777C33.568 23.755 33.9456 23.7631 34.3993 23.9148C34.8433 24.0632 35.3749 24.1374 35.827 24.0471C37.7506 23.6631 38.8736 21.5593 38.2821 19.5233C37.8365 17.9858 36.647 17.3099 35.1901 17.055C33.6409 16.7839 32.1808 17.6567 31.8486 19.0539C31.7044 19.6621 31.3722 19.9815 30.8585 20.2509C26.3145 22.6322 21.7803 25.0344 17.2364 27.414C16.6643 27.7141 16.3062 28.1045 16.1101 28.7386C15.598 30.3954 13.856 31.2795 12.3003 30.7326C10.623 30.1438 9.55185 27.7883 10.1401 25.9895C10.7251 24.1987 12.6049 23.2452 14.0083 23.847C14.2287 23.9406 14.5884 23.8502 14.8299 23.7357C15.7536 23.2953 16.6562 22.8113 17.5637 22.3402C22.4382 19.8121 27.3128 17.2857 32.1841 14.7544C32.6524 14.5108 33.0948 14.5011 33.5939 14.6915C33.9877 14.8415 34.4366 14.9496 34.8515 14.9238C35.8983 14.8609 36.7021 14.3753 37.0392 13.3266C37.3924 12.2247 37.2207 11.2212 36.3618 10.392C35.7265 9.77732 34.9665 9.38367 34.1028 9.18039C32.4968 8.80288 31.5585 9.27235 30.8552 10.7695C30.7499 10.9938 30.5311 11.2164 30.3075 11.3261C29.0548 11.9456 27.7649 12.4925 26.5236 13.1314C20.0334 16.4742 13.6858 20.0573 7.5975 24.0906C6.84234 24.5907 6.33997 25.1812 6.06287 26.0234C5.94457 26.3831 5.742 26.7397 5.49568 27.0268C4.8572 27.769 3.94808 27.7012 3.43924 26.8687C3.20264 26.4832 3.02925 26.0395 2.92067 25.6007C2.59333 24.2713 2.84613 23.0323 3.64343 21.9175C3.86868 21.6013 4.18144 21.3657 4.60277 21.4625C5.12782 21.5835 5.57509 21.419 5.99156 21.1383C6.44531 20.8317 6.86989 20.4849 7.32687 20.1848C10.9893 17.7713 14.8121 15.6401 18.6981 13.6041C24.3343 10.6517 30.092 7.97848 36.0782 5.80051C36.4801 5.65369 36.7572 5.71016 37.0197 6.04734C37.279 6.37968 37.5837 6.67653 37.9061 7.02985C38.6046 5.62143 39.2641 4.29206 39.948 2.91429C37.877 2.75296 35.8886 2.59647 33.8127 2.43514C34.1028 2.81265 34.3296 3.11112 34.5743 3.43055C34.388 3.49508 34.2648 3.53864 34.1433 3.57898C31.3544 4.51308 28.5168 5.32458 25.7911 6.41356C22.2875 7.81392 18.878 9.44498 15.4198 10.9599C14.9142 11.1809 14.5755 11.5003 14.3243 11.9908C13.7215 13.1685 12.7491 13.9171 11.456 14.2333C10.2487 14.5285 9.40438 13.9268 9.2715 12.6926C9.10783 11.1583 10.8742 9.10779 12.5385 8.93194C13.224 8.85934 13.8624 8.69317 14.4701 8.35922C15.6953 7.68647 16.9398 7.04921 18.1714 6.38614C18.7953 6.05057 19.4241 5.90053 20.1565 5.95377C21.5583 6.05541 22.7478 5.53431 23.5434 4.35498C23.9923 3.69029 23.7201 3.00302 22.9422 2.81104C22.3378 2.661 21.6863 2.60938 21.064 2.64326C19.9329 2.70456 18.8666 3.09982 18.1649 3.99521C17.5459 4.78573 16.7745 5.26327 15.9027 5.66499C15.3792 5.90537 14.8736 6.18609 14.3583 6.44422C11.8562 7.70099 9.64908 9.40142 7.39331 11.0276C6.43883 11.7165 5.70959 12.5764 5.16996 13.6267C4.94795 14.0607 4.57523 14.4382 4.20413 14.7673C4.03235 14.9189 3.67584 14.977 3.45058 14.9125C3.32418 14.8754 3.23343 14.5027 3.23667 14.2833C3.24154 14.0074 3.32418 13.7186 3.436 13.4605C3.58833 13.1056 3.80548 12.7781 3.98374 12.4328C4.4229 11.5842 4.99818 10.8776 5.86192 10.4081C6.28812 10.1758 6.65436 9.83378 7.05301 9.54984C8.72863 8.35115 10.3346 7.0363 12.1026 5.99088C14.2173 4.73895 16.4618 3.70159 18.6673 2.60776C19.6169 2.13668 20.5406 1.59622 21.6264 1.43166C22.5809 1.28646 23.5256 1.07996 24.4655 0.85732C24.728 0.796014 24.9549 0.586284 25.198 0.445926L25.2029 0.442699Z" fill="url(#paint0_linear_298_18)"/>
<path fill-rule="evenodd" clip-rule="evenodd" d="M25.2031 0.441871C24.96 0.583842 24.7315 0.79196 24.4706 0.853265C23.5307 1.07429 22.5843 1.28241 21.6314 1.4276C20.5457 1.59216 19.622 2.13262 18.6724 2.60371C16.4668 3.69753 14.2224 4.73651 12.1076 5.98682C10.3412 7.03225 8.73369 8.3471 7.05807 9.54579C6.65942 9.83134 6.29318 10.1718 5.86698 10.4041C5.00487 10.8752 4.42796 11.5802 3.9888 12.4288C3.81054 12.774 3.59339 13.1015 3.44106 13.4565C3.33087 13.713 3.2466 14.0034 3.24174 14.2792C3.2385 14.4987 3.32924 14.8729 3.45565 14.9084C3.6809 14.973 4.03741 14.9165 4.20919 14.7632C4.58029 14.4357 4.95301 14.0566 5.17502 13.6226C5.71465 12.5724 6.44227 11.7125 7.39838 11.0236C9.65415 9.39736 11.8613 7.69532 14.3634 6.44016C14.8787 6.18203 15.3843 5.90132 15.9077 5.66093C16.7796 5.25922 17.551 4.78168 18.17 3.99116C18.8717 3.09577 19.938 2.70051 21.0691 2.6392C21.693 2.60532 22.3428 2.65695 22.9473 2.80699C23.7251 2.99897 23.9974 3.68624 23.5485 4.35092C22.7528 5.52864 21.5617 6.05135 20.1616 5.94972C19.4275 5.89648 18.7988 6.04651 18.1765 6.38208C16.9449 7.04516 15.7003 7.68241 14.4752 8.35516C13.8675 8.68912 13.229 8.85529 12.5435 8.92789C10.8793 9.10374 9.11289 11.1543 9.27656 12.6885C9.40783 13.9227 10.2537 14.5245 11.461 14.2292C12.7542 13.913 13.7265 13.1661 14.3294 11.9867C14.5805 11.4963 14.9192 11.1768 15.4248 10.9558C18.883 9.44092 22.2926 7.80986 25.7962 6.40951C28.5219 5.32052 31.361 4.50903 34.1483 3.57492C34.2715 3.53459 34.393 3.49103 34.5794 3.4265C34.3347 3.10706 34.1078 2.81021 33.8178 2.43108C35.8936 2.59403 37.882 2.74891 39.9531 2.91024C39.2708 4.28639 38.6113 5.61576 37.9112 7.02579C37.5887 6.67248 37.2841 6.37563 37.0248 6.04329C36.7606 5.70611 36.4851 5.64964 36.0832 5.79645C30.097 7.97442 24.3393 10.6461 18.7031 13.6C14.8171 15.636 10.9943 17.7672 7.33194 20.1807C6.87495 20.4808 6.44875 20.8277 5.99662 21.1342C5.58015 21.4149 5.13289 21.5779 4.60784 21.4585C4.1865 21.3617 3.87374 21.5972 3.64849 21.9134C2.84957 23.0282 2.59839 24.2673 2.92573 25.5966C3.03431 26.0371 3.20771 26.4791 3.4443 26.8647C3.95315 27.6972 4.86226 27.7649 5.50074 27.0228C5.74706 26.7356 5.94963 26.3791 6.06793 26.0193C6.34666 25.1772 6.8474 24.5867 7.60256 24.0866C13.6909 20.0533 20.0385 16.4685 26.5286 13.1273C27.77 12.4885 29.0599 11.9416 30.3126 11.322C30.5362 11.2123 30.755 10.9897 30.8603 10.7655C31.562 9.2683 32.5003 8.79882 34.1078 9.17634C34.9716 9.37962 35.73 9.77326 36.3668 10.3879C37.2241 11.2172 37.3975 12.2207 37.0442 13.3225C36.7071 14.3712 35.905 14.8568 34.8565 14.9197C34.4417 14.9439 33.9928 14.8374 33.599 14.6874C33.0982 14.497 32.6558 14.5067 32.1891 14.7503C27.3178 17.2816 22.4417 19.8097 17.5688 22.3361C16.6613 22.8072 15.7587 23.2912 14.835 23.7316C14.5935 23.8462 14.2337 23.9381 14.0133 23.843C12.61 23.2412 10.7302 24.1947 10.1452 25.9854C9.55853 27.7827 10.6297 30.1397 12.3053 30.7286C13.861 31.2739 15.6031 30.3914 16.1152 28.7345C16.3113 28.1005 16.6694 27.7101 17.2414 27.41C21.787 25.0303 26.3196 22.6281 30.8635 20.2469C31.3789 19.9775 31.7095 19.658 31.8537 19.0498C32.1859 17.6543 33.646 16.7799 35.1952 17.0509C36.6521 17.3058 37.8415 17.9818 38.2872 19.5193C38.8786 21.5569 37.7556 23.6607 35.8321 24.043C35.3783 24.1334 34.8484 24.0575 34.4044 23.9107C33.9506 23.7607 33.5747 23.751 33.1663 23.9736C32.3317 24.4302 31.4874 24.8674 30.6561 25.3304C30.2251 25.5708 29.807 25.5886 29.3273 25.4643C27.6565 25.0303 25.229 25.6531 24.5257 28.2521C24.012 30.1542 25.2614 32.2402 27.2303 32.7759C29.0745 33.2792 31.2314 32.1354 31.8521 30.2849C32.0157 29.7977 32.2864 29.4799 32.732 29.2363C37.4169 26.6662 41.781 23.5913 46.2569 20.6905C46.7511 20.3695 47.2568 20.0678 47.7769 19.7468C47.4674 19.2482 47.166 18.7626 46.8127 18.1931C48.5613 18.3206 50.232 18.4432 51.9498 18.569C51.3307 20.1694 50.736 21.7069 50.1154 23.3138C49.8463 22.933 49.613 22.6007 49.3651 22.249C49.31 22.278 49.2565 22.2942 49.2208 22.3297C46.6134 24.8303 43.5733 26.7453 40.5429 28.6732C35.1401 32.1128 29.5412 35.2087 23.8402 38.1272C22.6994 38.7112 21.5229 39.2291 20.3415 39.7244C20.0514 39.847 19.6625 39.8228 19.34 39.7599C18.5362 39.6002 17.7503 39.505 16.953 39.7889C15.6582 40.2487 15.2012 41.4184 15.8575 42.6251C16.6742 44.1271 18.8101 45.0048 20.4549 44.524C21.0416 44.3514 21.424 43.9464 21.8097 43.5028C22.1208 43.1446 22.4854 42.7752 22.9052 42.5767C24.3896 41.8766 25.9128 41.2603 27.4135 40.5924C32.6591 38.2611 37.626 35.433 42.4179 32.2903C42.4778 32.2515 42.5345 32.208 42.6253 32.1434C42.4357 31.6966 42.2477 31.2513 42.0257 30.727C43.5231 30.9157 44.9475 31.0948 46.4384 31.2819C45.7772 32.8339 45.1322 34.344 44.4516 35.9347C44.2264 35.5088 44.0319 35.141 43.8212 34.7457C43.7273 34.8038 43.6414 34.8457 43.5684 34.9038C40.8735 37.0447 37.9598 38.85 34.9635 40.5343C34.5162 40.7843 34.0657 40.8989 33.5601 40.8731C32.1908 40.7989 31.0094 41.2506 29.9998 42.1637C29.2754 42.8187 29.0469 43.5592 29.3321 44.3239C29.6255 45.1129 30.3077 45.5646 31.259 45.6033C32.907 45.6711 34.231 45.079 35.2373 43.7512C35.5161 43.3834 35.9082 43.0752 36.3004 42.8203C39.0067 41.0554 41.6935 39.2662 44.1859 37.1996C45.129 36.4171 46.1013 35.6685 47.0396 34.8828C47.2746 34.686 47.4658 34.4214 47.6262 34.1569C47.9746 33.5777 48.255 32.9566 48.6326 32.4C48.7752 32.1902 49.109 32.0192 49.3618 32.0128C49.4898 32.0095 49.6924 32.3935 49.7459 32.629C49.8042 32.8823 49.7815 33.184 49.6989 33.4309C49.4688 34.1214 49.2192 34.8102 48.9178 35.4733C48.6747 36.0057 48.2226 36.3397 47.7073 36.651C47.0121 37.0737 46.4125 37.6529 45.7691 38.1627C40.3728 42.4412 34.5324 45.9598 28.0665 48.4105C27.5463 48.6073 27.0342 48.6396 26.4979 48.6024C25.6212 48.5411 24.7574 48.5895 23.9844 49.0542C23.7819 49.1752 23.5436 49.4075 23.5242 49.6075C23.5096 49.756 23.7981 49.9689 23.9893 50.0996C24.7882 50.6401 25.6892 50.4239 26.5594 50.4029C27.569 50.3771 28.4846 50.0641 29.4002 49.614C31.1309 48.7622 32.9443 48.0813 34.688 47.2537C38.0538 45.6549 41.3062 43.8512 44.2685 41.5749C44.7498 41.2054 45.1306 40.7021 45.5325 40.2407C45.8825 39.8405 46.1791 39.3953 46.534 38.9984C46.79 38.7112 47.1352 38.566 47.5809 38.6209C47.0996 39.9922 46.3719 41.178 45.2214 42.025C43.3075 43.435 41.3678 44.8096 39.3924 46.1309C37.4024 47.4618 35.3038 48.6057 33.0885 49.5462C31.1196 50.3819 29.068 50.7917 26.9565 50.9369C22.4676 51.2467 18.2056 50.3448 14.2354 48.2766C6.51033 44.261 1.83026 37.9627 0.366929 29.3911C-0.478983 24.4367 0.146538 19.6177 2.2127 15.0246C2.97273 13.3338 3.89643 11.6996 5.16854 10.3315C6.04848 9.38607 7.04348 8.53585 8.05955 7.73404C9.35921 6.70797 10.7253 5.76096 12.0768 4.79943C14.2175 3.27485 16.577 2.17295 19.0272 1.24853C19.9704 0.891985 20.9314 0.582229 21.8761 0.2273C22.8047 -0.122788 23.7592 0.0288632 24.7056 0.0482229C24.8579 0.0514495 25.007 0.186968 25.1561 0.26118C25.1723 0.320873 25.1869 0.380565 25.2031 0.440258V0.441871ZM35.0558 18.7513C34.137 18.6481 33.5552 19.5999 33.565 20.2872C33.5795 21.2988 34.3282 22.149 35.2568 22.1603C36.1189 22.17 36.8481 21.4407 36.8465 20.5712C36.8449 19.5596 36.0622 18.7659 35.0542 18.7513H35.0558ZM32.5716 11.5495C32.5635 12.674 33.9766 13.5662 34.9959 13.0773C35.4123 12.8773 35.6943 12.4417 35.6473 12.0674C35.5533 11.2995 34.9035 10.5864 34.1516 10.4202C33.3235 10.2379 32.5781 10.7703 32.5732 11.5495H32.5716ZM20.8033 5.13822C21.1615 4.97366 21.6266 4.83492 21.9912 4.56388C22.1824 4.4203 22.3039 4.02826 22.2618 3.78143C22.2294 3.59105 21.9199 3.37648 21.6914 3.30227C21.1307 3.11997 20.5829 3.28775 20.0725 3.53298C19.7711 3.67817 19.5199 3.89274 19.5199 4.28317C19.5199 4.68811 19.8375 4.79459 20.1195 4.92526C20.2977 5.00754 20.4971 5.04626 20.8066 5.13983L20.8033 5.13822ZM48.2906 35.341C49.1414 34.9603 49.5773 33.6906 49.0879 33.1001C48.268 33.589 47.9147 34.5553 48.2906 35.341Z" fill="url(#paint1_linear_298_18)"/>
<path fill-rule="evenodd" clip-rule="evenodd" d="M35.0568 18.7531C36.0647 18.7676 36.8474 19.5613 36.8491 20.5729C36.8491 21.4441 36.1214 22.1717 35.2593 22.162C34.3308 22.1507 33.5805 21.3005 33.5675 20.289C33.5578 19.6017 34.1395 18.6482 35.0584 18.7531H35.0568Z" fill="white"/>
<path fill-rule="evenodd" clip-rule="evenodd" d="M32.5729 11.5515C32.5778 10.7722 33.3232 10.2398 34.1513 10.4221C34.9049 10.5883 35.5531 11.3014 35.6471 12.0693C35.6941 12.4436 35.4121 12.8792 34.9956 13.0793C33.9779 13.5681 32.5632 12.6776 32.5713 11.5515H32.5729Z" fill="white"/>
<path fill-rule="evenodd" clip-rule="evenodd" d="M20.8028 5.13838C20.4949 5.04481 20.2956 5.00609 20.1157 4.92381C19.8337 4.79474 19.5161 4.68665 19.5161 4.28171C19.5161 3.8929 19.7673 3.67672 20.0687 3.53152C20.5792 3.2863 21.1285 3.11851 21.6876 3.30082C21.9161 3.37503 22.2272 3.5896 22.258 3.77997C22.3002 4.02681 22.1786 4.42046 21.9874 4.56243C21.6228 4.83346 21.1593 4.97221 20.7996 5.13677L20.8028 5.13838Z" fill="white"/>
<path fill-rule="evenodd" clip-rule="evenodd" d="M48.2904 35.3412C47.9144 34.5539 48.2677 33.5876 49.0876 33.1003C49.5787 33.6908 49.1411 34.9621 48.2904 35.3412Z" fill="white"/>
<defs>
<linearGradient id="paint0_linear_298_18" x1="46.96" y1="11.2083" x2="4.53205" y2="39.9555" gradientUnits="userSpaceOnUse">
<stop stop-color="#00AEE6"/>
<stop offset="1" stop-color="#007A91"/>
</linearGradient>
<linearGradient id="paint1_linear_298_18" x1="46.9602" y1="11.2075" x2="4.53225" y2="39.9547" gradientUnits="userSpaceOnUse">
<stop stop-color="#00AEE6"/>
<stop offset="1" stop-color="#007A91"/>
</linearGradient>
</defs>
</svg>
